<mxfile host="app.diagrams.net" modified="2022-06-13T08:45:26.015Z" agent="5.0 (Windows NT 10.0; Win64; x64) AppleWebKit/537.36 (KHTML, like Gecko) Chrome/102.0.5005.63 Safari/537.36" etag="-XKCqHf8YRoXmi63WVPT" version="19.0.3" type="github">
  <diagram id="8h3l6JmPsTgKqjKdvGu1" name="Page-1">
    <mxGraphModel dx="3160" dy="1693" grid="1" gridSize="10" guides="1" tooltips="1" connect="1" arrows="1" fold="1" page="1" pageScale="1" pageWidth="2339" pageHeight="3300" math="0" shadow="0">
      <root>
        <mxCell id="0" />
        <mxCell id="1" parent="0" />
        <mxCell id="deBcPr4J8Tzdj9g3bw6M-156" value="" style="rounded=0;whiteSpace=wrap;html=1;sketch=0;fontSize=14;" vertex="1" parent="1">
          <mxGeometry x="1955" y="2940" width="455" height="150" as="geometry" />
        </mxCell>
        <mxCell id="ZQUlif8Db56IZMJPdO7F-18" style="edgeStyle=orthogonalEdgeStyle;rounded=0;orthogonalLoop=1;jettySize=auto;html=1;fontSize=18;fillColor=#f5f5f5;strokeColor=#666666;" parent="1" source="ZQUlif8Db56IZMJPdO7F-1" target="ZQUlif8Db56IZMJPdO7F-3" edge="1">
          <mxGeometry relative="1" as="geometry" />
        </mxCell>
        <mxCell id="ZQUlif8Db56IZMJPdO7F-1" value="&lt;b&gt;&lt;font style=&quot;font-size: 18px;&quot;&gt;Java&lt;br&gt;.class文件&lt;/font&gt;&lt;/b&gt;" style="rounded=1;whiteSpace=wrap;html=1;fillColor=#f5f5f5;strokeColor=#666666;sketch=1;fontColor=#333333;" parent="1" vertex="1">
          <mxGeometry x="310" y="80" width="120" height="60" as="geometry" />
        </mxCell>
        <mxCell id="ZQUlif8Db56IZMJPdO7F-3" value="&lt;b&gt;ClassLoader&lt;br&gt;类加载器&lt;/b&gt;" style="rounded=1;whiteSpace=wrap;html=1;sketch=1;fontSize=18;fillColor=#f5f5f5;strokeColor=#666666;fontColor=#333333;" parent="1" vertex="1">
          <mxGeometry x="595" y="80" width="130" height="60" as="geometry" />
        </mxCell>
        <mxCell id="ZQUlif8Db56IZMJPdO7F-5" value="" style="rounded=0;whiteSpace=wrap;html=1;sketch=0;fontSize=18;shadow=1;fillColor=#f5f5f5;strokeColor=#666666;fontColor=#333333;" parent="1" vertex="1">
          <mxGeometry x="190" y="220" width="820" height="330" as="geometry" />
        </mxCell>
        <mxCell id="ZQUlif8Db56IZMJPdO7F-7" value="&lt;b&gt;Method Area&lt;br&gt;方法区&lt;/b&gt;" style="rounded=1;whiteSpace=wrap;html=1;shadow=1;sketch=0;fontSize=18;fillColor=#f8cecc;strokeColor=#b85450;" parent="1" vertex="1">
          <mxGeometry x="240" y="310" width="130" height="80" as="geometry" />
        </mxCell>
        <mxCell id="ZQUlif8Db56IZMJPdO7F-8" value="&lt;b&gt;Heap&lt;br&gt;堆&lt;/b&gt;" style="rounded=1;whiteSpace=wrap;html=1;shadow=1;sketch=0;fontSize=18;fillColor=#f8cecc;strokeColor=#b85450;" parent="1" vertex="1">
          <mxGeometry x="520" y="310" width="130" height="80" as="geometry" />
        </mxCell>
        <mxCell id="ZQUlif8Db56IZMJPdO7F-9" value="&lt;b&gt;VM Stack&lt;br&gt;虚拟机栈&lt;/b&gt;" style="rounded=1;whiteSpace=wrap;html=1;shadow=1;sketch=1;fontSize=18;fillColor=#f5f5f5;strokeColor=#666666;fontColor=#333333;" parent="1" vertex="1">
          <mxGeometry x="770" y="310" width="130" height="80" as="geometry" />
        </mxCell>
        <mxCell id="ZQUlif8Db56IZMJPdO7F-10" value="&lt;b&gt;Native Method Stack&lt;br&gt;本地方法栈&lt;/b&gt;" style="rounded=1;whiteSpace=wrap;html=1;shadow=1;sketch=1;fontSize=18;fillColor=#f5f5f5;strokeColor=#666666;fontColor=#333333;" parent="1" vertex="1">
          <mxGeometry x="680" y="440" width="190" height="75" as="geometry" />
        </mxCell>
        <mxCell id="ZQUlif8Db56IZMJPdO7F-11" value="&lt;b&gt;PC Register&lt;br&gt;程序计数器&lt;/b&gt;" style="rounded=1;whiteSpace=wrap;html=1;shadow=1;sketch=1;fontSize=18;fillColor=#f5f5f5;strokeColor=#666666;fontColor=#333333;" parent="1" vertex="1">
          <mxGeometry x="330" y="435" width="130" height="80" as="geometry" />
        </mxCell>
        <mxCell id="ZQUlif8Db56IZMJPdO7F-12" value="&lt;b&gt;&lt;i&gt;JVM 内存结构&lt;/i&gt;&lt;/b&gt;" style="text;html=1;align=center;verticalAlign=middle;resizable=0;points=[];autosize=1;strokeColor=#666666;fillColor=#f5f5f5;fontSize=18;fontColor=#333333;" parent="1" vertex="1">
          <mxGeometry x="260" y="240" width="130" height="30" as="geometry" />
        </mxCell>
        <mxCell id="ZQUlif8Db56IZMJPdO7F-19" value="" style="rounded=1;whiteSpace=wrap;html=1;shadow=1;sketch=0;fontSize=18;fillColor=#f5f5f5;strokeColor=#666666;fontColor=#333333;" parent="1" vertex="1">
          <mxGeometry x="200" y="580" width="510" height="150" as="geometry" />
        </mxCell>
        <mxCell id="ZQUlif8Db56IZMJPdO7F-20" value="&lt;b&gt;JIT&lt;br&gt;即时编译器&lt;/b&gt;" style="rounded=1;whiteSpace=wrap;html=1;shadow=1;sketch=1;fontSize=18;fillColor=#f5f5f5;strokeColor=#666666;fontColor=#333333;" parent="1" vertex="1">
          <mxGeometry x="230" y="630" width="130" height="80" as="geometry" />
        </mxCell>
        <mxCell id="ZQUlif8Db56IZMJPdO7F-21" value="&lt;b&gt;GC&lt;br&gt;垃圾回收器&lt;/b&gt;" style="rounded=1;whiteSpace=wrap;html=1;shadow=1;sketch=1;fontSize=18;fillColor=#f5f5f5;strokeColor=#666666;fontColor=#333333;" parent="1" vertex="1">
          <mxGeometry x="380" y="630" width="130" height="80" as="geometry" />
        </mxCell>
        <mxCell id="ZQUlif8Db56IZMJPdO7F-22" value="&lt;b&gt;Interpreter&lt;br&gt;解释器&lt;/b&gt;" style="rounded=1;whiteSpace=wrap;html=1;shadow=1;sketch=1;fontSize=18;fillColor=#f5f5f5;strokeColor=#666666;fontColor=#333333;" parent="1" vertex="1">
          <mxGeometry x="530" y="630" width="130" height="80" as="geometry" />
        </mxCell>
        <mxCell id="ZQUlif8Db56IZMJPdO7F-24" value="&lt;b&gt;&lt;i&gt;执行引擎&lt;/i&gt;&lt;/b&gt;" style="text;html=1;align=center;verticalAlign=middle;resizable=0;points=[];autosize=1;strokeColor=#666666;fillColor=#f5f5f5;fontSize=18;fontColor=#333333;" parent="1" vertex="1">
          <mxGeometry x="250" y="590" width="90" height="30" as="geometry" />
        </mxCell>
        <mxCell id="ZQUlif8Db56IZMJPdO7F-25" value="&lt;b&gt;本地方法接口&lt;/b&gt;" style="rounded=1;whiteSpace=wrap;html=1;shadow=1;sketch=1;fontSize=18;fillColor=#f5f5f5;strokeColor=#666666;fontColor=#333333;" parent="1" vertex="1">
          <mxGeometry x="810" y="630" width="130" height="80" as="geometry" />
        </mxCell>
        <mxCell id="ZQUlif8Db56IZMJPdO7F-28" value="" style="endArrow=classic;html=1;rounded=0;fontSize=18;fillColor=#f5f5f5;strokeColor=#666666;" parent="1" edge="1">
          <mxGeometry width="50" height="50" relative="1" as="geometry">
            <mxPoint x="839" y="630" as="sourcePoint" />
            <mxPoint x="839" y="550" as="targetPoint" />
          </mxGeometry>
        </mxCell>
        <mxCell id="ZQUlif8Db56IZMJPdO7F-29" value="" style="endArrow=none;html=1;rounded=0;fontSize=18;startArrow=classic;startFill=1;endFill=0;fillColor=#f5f5f5;strokeColor=#666666;" parent="1" edge="1">
          <mxGeometry width="50" height="50" relative="1" as="geometry">
            <mxPoint x="900" y="630" as="sourcePoint" />
            <mxPoint x="900" y="550" as="targetPoint" />
          </mxGeometry>
        </mxCell>
        <mxCell id="ZQUlif8Db56IZMJPdO7F-32" value="" style="endArrow=classic;html=1;rounded=0;fontSize=18;fillColor=#f5f5f5;strokeColor=#666666;" parent="1" edge="1">
          <mxGeometry width="50" height="50" relative="1" as="geometry">
            <mxPoint x="627.09" y="220" as="sourcePoint" />
            <mxPoint x="627.09" y="140" as="targetPoint" />
          </mxGeometry>
        </mxCell>
        <mxCell id="ZQUlif8Db56IZMJPdO7F-33" value="" style="endArrow=none;html=1;rounded=0;fontSize=18;startArrow=classic;startFill=1;endFill=0;fillColor=#f5f5f5;strokeColor=#666666;" parent="1" edge="1">
          <mxGeometry width="50" height="50" relative="1" as="geometry">
            <mxPoint x="694.09" y="220" as="sourcePoint" />
            <mxPoint x="694.09" y="140" as="targetPoint" />
          </mxGeometry>
        </mxCell>
        <mxCell id="ZQUlif8Db56IZMJPdO7F-34" value="" style="endArrow=classic;html=1;rounded=0;fontSize=18;exitX=0;exitY=0.25;exitDx=0;exitDy=0;fillColor=#f5f5f5;strokeColor=#666666;" parent="1" source="ZQUlif8Db56IZMJPdO7F-25" edge="1">
          <mxGeometry width="50" height="50" relative="1" as="geometry">
            <mxPoint x="789" y="650" as="sourcePoint" />
            <mxPoint x="710" y="650" as="targetPoint" />
          </mxGeometry>
        </mxCell>
        <mxCell id="ZQUlif8Db56IZMJPdO7F-35" value="" style="endArrow=none;html=1;rounded=0;fontSize=18;startArrow=classic;startFill=1;endFill=0;entryX=1;entryY=0.75;entryDx=0;entryDy=0;fillColor=#f5f5f5;strokeColor=#666666;" parent="1" target="ZQUlif8Db56IZMJPdO7F-19" edge="1">
          <mxGeometry width="50" height="50" relative="1" as="geometry">
            <mxPoint x="810" y="693" as="sourcePoint" />
            <mxPoint x="770" y="710" as="targetPoint" />
          </mxGeometry>
        </mxCell>
        <mxCell id="deBcPr4J8Tzdj9g3bw6M-3" style="edgeStyle=orthogonalEdgeStyle;rounded=0;orthogonalLoop=1;jettySize=auto;html=1;fontSize=18;" edge="1" parent="1" source="deBcPr4J8Tzdj9g3bw6M-1" target="deBcPr4J8Tzdj9g3bw6M-2">
          <mxGeometry relative="1" as="geometry" />
        </mxCell>
        <mxCell id="deBcPr4J8Tzdj9g3bw6M-1" value="&lt;b&gt;&lt;i&gt;&lt;font style=&quot;font-size: 18px;&quot;&gt;对象A&lt;br&gt;cnt=2&lt;br&gt;&lt;/font&gt;&lt;/i&gt;&lt;/b&gt;" style="rounded=1;whiteSpace=wrap;html=1;sketch=0;fillColor=#f8cecc;strokeColor=#b85450;" vertex="1" parent="1">
          <mxGeometry x="525" y="1040" width="120" height="60" as="geometry" />
        </mxCell>
        <mxCell id="deBcPr4J8Tzdj9g3bw6M-5" style="edgeStyle=orthogonalEdgeStyle;rounded=0;orthogonalLoop=1;jettySize=auto;html=1;entryX=0;entryY=0.5;entryDx=0;entryDy=0;fontSize=18;" edge="1" parent="1" source="deBcPr4J8Tzdj9g3bw6M-2" target="deBcPr4J8Tzdj9g3bw6M-1">
          <mxGeometry relative="1" as="geometry">
            <Array as="points">
              <mxPoint x="910" y="1070" />
              <mxPoint x="910" y="1160" />
              <mxPoint x="460" y="1160" />
              <mxPoint x="460" y="1070" />
            </Array>
          </mxGeometry>
        </mxCell>
        <mxCell id="deBcPr4J8Tzdj9g3bw6M-2" value="&lt;b&gt;&lt;i&gt;&lt;font style=&quot;font-size: 18px;&quot;&gt;对象B&lt;br&gt;cnt=1&lt;br&gt;&lt;/font&gt;&lt;/i&gt;&lt;/b&gt;" style="rounded=1;whiteSpace=wrap;html=1;sketch=0;fillColor=#f8cecc;strokeColor=#b85450;" vertex="1" parent="1">
          <mxGeometry x="760" y="1040" width="120" height="60" as="geometry" />
        </mxCell>
        <mxCell id="deBcPr4J8Tzdj9g3bw6M-6" value="" style="endArrow=classic;html=1;rounded=0;fontSize=18;" edge="1" parent="1">
          <mxGeometry width="50" height="50" relative="1" as="geometry">
            <mxPoint x="400" y="1070" as="sourcePoint" />
            <mxPoint x="525" y="1069.9" as="targetPoint" />
          </mxGeometry>
        </mxCell>
        <mxCell id="deBcPr4J8Tzdj9g3bw6M-7" value="&lt;b&gt;&lt;i&gt;P&lt;/i&gt;&lt;/b&gt;" style="rounded=1;whiteSpace=wrap;html=1;sketch=0;fontSize=18;fillColor=#dae8fc;strokeColor=#6c8ebf;" vertex="1" parent="1">
          <mxGeometry x="350" y="1040" width="50" height="60" as="geometry" />
        </mxCell>
        <mxCell id="deBcPr4J8Tzdj9g3bw6M-8" style="edgeStyle=orthogonalEdgeStyle;rounded=0;orthogonalLoop=1;jettySize=auto;html=1;fontSize=18;" edge="1" parent="1" source="deBcPr4J8Tzdj9g3bw6M-9" target="deBcPr4J8Tzdj9g3bw6M-11">
          <mxGeometry relative="1" as="geometry" />
        </mxCell>
        <mxCell id="deBcPr4J8Tzdj9g3bw6M-9" value="&lt;b&gt;&lt;i&gt;&lt;font style=&quot;font-size: 18px;&quot;&gt;对象A&lt;br&gt;cnt=1&lt;br&gt;&lt;/font&gt;&lt;/i&gt;&lt;/b&gt;" style="rounded=1;whiteSpace=wrap;html=1;sketch=0;fillColor=#f8cecc;strokeColor=#b85450;" vertex="1" parent="1">
          <mxGeometry x="525" y="1240" width="120" height="60" as="geometry" />
        </mxCell>
        <mxCell id="deBcPr4J8Tzdj9g3bw6M-10" style="edgeStyle=orthogonalEdgeStyle;rounded=0;orthogonalLoop=1;jettySize=auto;html=1;entryX=0;entryY=0.5;entryDx=0;entryDy=0;fontSize=18;" edge="1" parent="1" source="deBcPr4J8Tzdj9g3bw6M-11" target="deBcPr4J8Tzdj9g3bw6M-9">
          <mxGeometry relative="1" as="geometry">
            <Array as="points">
              <mxPoint x="910" y="1270" />
              <mxPoint x="910" y="1360" />
              <mxPoint x="460" y="1360" />
              <mxPoint x="460" y="1270" />
            </Array>
          </mxGeometry>
        </mxCell>
        <mxCell id="deBcPr4J8Tzdj9g3bw6M-11" value="&lt;b&gt;&lt;i&gt;&lt;font style=&quot;font-size: 18px;&quot;&gt;对象B&lt;br&gt;cnt=1&lt;br&gt;&lt;/font&gt;&lt;/i&gt;&lt;/b&gt;" style="rounded=1;whiteSpace=wrap;html=1;sketch=0;fillColor=#f8cecc;strokeColor=#b85450;" vertex="1" parent="1">
          <mxGeometry x="760" y="1240" width="120" height="60" as="geometry" />
        </mxCell>
        <mxCell id="deBcPr4J8Tzdj9g3bw6M-14" value="&lt;b&gt;&lt;i&gt;P&lt;/i&gt;&lt;/b&gt;" style="rounded=1;whiteSpace=wrap;html=1;sketch=0;fontSize=18;fillColor=#dae8fc;strokeColor=#6c8ebf;" vertex="1" parent="1">
          <mxGeometry x="340" y="1260" width="50" height="60" as="geometry" />
        </mxCell>
        <mxCell id="deBcPr4J8Tzdj9g3bw6M-15" value="&lt;b&gt;&lt;i&gt;当p指针断开时，对象A引用对象B，对象B也引用对象A，计数器都为1 &lt;br&gt;但是却没有其他的对象引用他们这就是循环因引用，造成了内存泄漏&lt;/i&gt;&lt;/b&gt;" style="text;html=1;align=center;verticalAlign=middle;resizable=0;points=[];autosize=1;strokeColor=none;fillColor=none;fontSize=18;" vertex="1" parent="1">
          <mxGeometry x="350" y="1410" width="570" height="50" as="geometry" />
        </mxCell>
        <mxCell id="deBcPr4J8Tzdj9g3bw6M-16" value="" style="rounded=0;whiteSpace=wrap;html=1;sketch=0;fontSize=18;fillColor=#e1d5e7;strokeColor=#9673a6;" vertex="1" parent="1">
          <mxGeometry x="405" y="1700" width="495" height="70" as="geometry" />
        </mxCell>
        <mxCell id="deBcPr4J8Tzdj9g3bw6M-17" value="&lt;b&gt;&lt;i&gt;GC Root Set&lt;/i&gt;&lt;/b&gt;" style="text;html=1;align=center;verticalAlign=middle;resizable=0;points=[];autosize=1;strokeColor=none;fillColor=none;fontSize=18;" vertex="1" parent="1">
          <mxGeometry x="750" y="1740" width="120" height="30" as="geometry" />
        </mxCell>
        <mxCell id="deBcPr4J8Tzdj9g3bw6M-24" value="" style="edgeStyle=orthogonalEdgeStyle;rounded=0;orthogonalLoop=1;jettySize=auto;html=1;fontSize=14;" edge="1" parent="1" source="deBcPr4J8Tzdj9g3bw6M-18" target="deBcPr4J8Tzdj9g3bw6M-20">
          <mxGeometry relative="1" as="geometry" />
        </mxCell>
        <mxCell id="deBcPr4J8Tzdj9g3bw6M-18" value="&lt;b&gt;&lt;i&gt;&lt;font style=&quot;font-size: 14px;&quot;&gt;GC Roots&lt;/font&gt;&lt;/i&gt;&lt;/b&gt;" style="rounded=1;whiteSpace=wrap;html=1;sketch=0;fontSize=18;fillColor=#d5e8d4;strokeColor=#82b366;" vertex="1" parent="1">
          <mxGeometry x="440" y="1715" width="90" height="45" as="geometry" />
        </mxCell>
        <mxCell id="deBcPr4J8Tzdj9g3bw6M-25" style="rounded=0;orthogonalLoop=1;jettySize=auto;html=1;entryX=0.5;entryY=0;entryDx=0;entryDy=0;fontSize=14;" edge="1" parent="1" source="deBcPr4J8Tzdj9g3bw6M-20" target="deBcPr4J8Tzdj9g3bw6M-21">
          <mxGeometry relative="1" as="geometry" />
        </mxCell>
        <mxCell id="deBcPr4J8Tzdj9g3bw6M-26" style="edgeStyle=none;rounded=0;orthogonalLoop=1;jettySize=auto;html=1;entryX=0.25;entryY=0;entryDx=0;entryDy=0;fontSize=14;" edge="1" parent="1" source="deBcPr4J8Tzdj9g3bw6M-20" target="deBcPr4J8Tzdj9g3bw6M-22">
          <mxGeometry relative="1" as="geometry" />
        </mxCell>
        <mxCell id="deBcPr4J8Tzdj9g3bw6M-20" value="&lt;span style=&quot;font-size: 14px;&quot;&gt;&lt;b&gt;&lt;i&gt;对象1&lt;/i&gt;&lt;/b&gt;&lt;/span&gt;" style="rounded=1;whiteSpace=wrap;html=1;sketch=0;fontSize=18;fillColor=#d5e8d4;strokeColor=#82b366;" vertex="1" parent="1">
          <mxGeometry x="440" y="1810" width="90" height="45" as="geometry" />
        </mxCell>
        <mxCell id="deBcPr4J8Tzdj9g3bw6M-27" value="" style="edgeStyle=none;rounded=0;orthogonalLoop=1;jettySize=auto;html=1;fontSize=14;" edge="1" parent="1" source="deBcPr4J8Tzdj9g3bw6M-21" target="deBcPr4J8Tzdj9g3bw6M-23">
          <mxGeometry relative="1" as="geometry" />
        </mxCell>
        <mxCell id="deBcPr4J8Tzdj9g3bw6M-21" value="&lt;span style=&quot;font-size: 14px;&quot;&gt;&lt;b&gt;&lt;i&gt;对象2&lt;/i&gt;&lt;/b&gt;&lt;/span&gt;" style="rounded=1;whiteSpace=wrap;html=1;sketch=0;fontSize=18;fillColor=#d5e8d4;strokeColor=#82b366;" vertex="1" parent="1">
          <mxGeometry x="380" y="1900" width="90" height="45" as="geometry" />
        </mxCell>
        <mxCell id="deBcPr4J8Tzdj9g3bw6M-22" value="&lt;span style=&quot;font-size: 14px;&quot;&gt;&lt;b&gt;&lt;i&gt;对象3&lt;/i&gt;&lt;/b&gt;&lt;/span&gt;" style="rounded=1;whiteSpace=wrap;html=1;sketch=0;fontSize=18;fillColor=#d5e8d4;strokeColor=#82b366;" vertex="1" parent="1">
          <mxGeometry x="530" y="1900" width="90" height="45" as="geometry" />
        </mxCell>
        <mxCell id="deBcPr4J8Tzdj9g3bw6M-23" value="&lt;span style=&quot;font-size: 14px;&quot;&gt;&lt;b&gt;&lt;i&gt;对象4&lt;/i&gt;&lt;/b&gt;&lt;/span&gt;" style="rounded=1;whiteSpace=wrap;html=1;sketch=0;fontSize=18;fillColor=#d5e8d4;strokeColor=#82b366;" vertex="1" parent="1">
          <mxGeometry x="380" y="2000" width="90" height="45" as="geometry" />
        </mxCell>
        <mxCell id="deBcPr4J8Tzdj9g3bw6M-28" style="rounded=0;orthogonalLoop=1;jettySize=auto;html=1;entryX=0.5;entryY=0;entryDx=0;entryDy=0;fontSize=14;fillColor=#f5f5f5;strokeColor=#666666;" edge="1" parent="1" source="deBcPr4J8Tzdj9g3bw6M-30" target="deBcPr4J8Tzdj9g3bw6M-31">
          <mxGeometry relative="1" as="geometry" />
        </mxCell>
        <mxCell id="deBcPr4J8Tzdj9g3bw6M-29" style="edgeStyle=none;rounded=0;orthogonalLoop=1;jettySize=auto;html=1;entryX=0.25;entryY=0;entryDx=0;entryDy=0;fontSize=14;fillColor=#f5f5f5;strokeColor=#666666;" edge="1" parent="1" source="deBcPr4J8Tzdj9g3bw6M-30" target="deBcPr4J8Tzdj9g3bw6M-32">
          <mxGeometry relative="1" as="geometry" />
        </mxCell>
        <mxCell id="deBcPr4J8Tzdj9g3bw6M-30" value="&lt;span style=&quot;font-size: 14px;&quot;&gt;&lt;b&gt;&lt;i&gt;对象5&lt;/i&gt;&lt;/b&gt;&lt;/span&gt;" style="rounded=1;whiteSpace=wrap;html=1;sketch=0;fontSize=18;fillColor=#f5f5f5;strokeColor=#666666;fontColor=#333333;" vertex="1" parent="1">
          <mxGeometry x="720" y="1810" width="90" height="45" as="geometry" />
        </mxCell>
        <mxCell id="deBcPr4J8Tzdj9g3bw6M-31" value="&lt;span style=&quot;font-size: 14px;&quot;&gt;&lt;b&gt;&lt;i&gt;对象6&lt;/i&gt;&lt;/b&gt;&lt;/span&gt;" style="rounded=1;whiteSpace=wrap;html=1;sketch=0;fontSize=18;fillColor=#f5f5f5;strokeColor=#666666;fontColor=#333333;" vertex="1" parent="1">
          <mxGeometry x="660" y="1900" width="90" height="45" as="geometry" />
        </mxCell>
        <mxCell id="deBcPr4J8Tzdj9g3bw6M-32" value="&lt;span style=&quot;font-size: 14px;&quot;&gt;&lt;b&gt;&lt;i&gt;对象7&lt;/i&gt;&lt;/b&gt;&lt;/span&gt;" style="rounded=1;whiteSpace=wrap;html=1;sketch=0;fontSize=18;fillColor=#f5f5f5;strokeColor=#666666;fontColor=#333333;" vertex="1" parent="1">
          <mxGeometry x="810" y="1900" width="90" height="45" as="geometry" />
        </mxCell>
        <mxCell id="deBcPr4J8Tzdj9g3bw6M-33" value="&lt;span style=&quot;font-size: 14px;&quot;&gt;&lt;b&gt;&lt;i&gt;存活对象&lt;/i&gt;&lt;/b&gt;&lt;/span&gt;" style="rounded=1;whiteSpace=wrap;html=1;sketch=0;fontSize=18;fillColor=#d5e8d4;strokeColor=#82b366;" vertex="1" parent="1">
          <mxGeometry x="730" y="1955" width="90" height="45" as="geometry" />
        </mxCell>
        <mxCell id="deBcPr4J8Tzdj9g3bw6M-34" value="&lt;span style=&quot;font-size: 14px;&quot;&gt;&lt;b&gt;&lt;i&gt;可回收对象&lt;/i&gt;&lt;/b&gt;&lt;/span&gt;" style="rounded=1;whiteSpace=wrap;html=1;sketch=0;fontSize=18;fillColor=#f5f5f5;strokeColor=#666666;fontColor=#333333;" vertex="1" parent="1">
          <mxGeometry x="730" y="2010" width="90" height="45" as="geometry" />
        </mxCell>
        <mxCell id="deBcPr4J8Tzdj9g3bw6M-44" style="edgeStyle=orthogonalEdgeStyle;curved=1;rounded=0;orthogonalLoop=1;jettySize=auto;html=1;entryX=0.5;entryY=0;entryDx=0;entryDy=0;fontSize=14;exitX=0.5;exitY=0;exitDx=0;exitDy=0;" edge="1" parent="1" source="deBcPr4J8Tzdj9g3bw6M-36" target="deBcPr4J8Tzdj9g3bw6M-37">
          <mxGeometry relative="1" as="geometry">
            <Array as="points">
              <mxPoint x="345" y="2340" />
              <mxPoint x="595" y="2340" />
            </Array>
          </mxGeometry>
        </mxCell>
        <mxCell id="deBcPr4J8Tzdj9g3bw6M-36" value="&lt;b&gt;Method Area&lt;br&gt;方法区&lt;/b&gt;" style="rounded=1;whiteSpace=wrap;html=1;shadow=1;sketch=0;fontSize=18;fillColor=#fff2cc;strokeColor=#d6b656;" vertex="1" parent="1">
          <mxGeometry x="280" y="2370" width="130" height="80" as="geometry" />
        </mxCell>
        <mxCell id="deBcPr4J8Tzdj9g3bw6M-37" value="&lt;b&gt;Heap&lt;br&gt;堆&lt;/b&gt;" style="rounded=1;whiteSpace=wrap;html=1;shadow=1;sketch=0;fontSize=18;fillColor=#f5f5f5;strokeColor=#666666;fontColor=#333333;" vertex="1" parent="1">
          <mxGeometry x="530" y="2370" width="130" height="80" as="geometry" />
        </mxCell>
        <mxCell id="deBcPr4J8Tzdj9g3bw6M-42" style="edgeStyle=orthogonalEdgeStyle;rounded=0;orthogonalLoop=1;jettySize=auto;html=1;fontSize=14;curved=1;" edge="1" parent="1" source="deBcPr4J8Tzdj9g3bw6M-38" target="deBcPr4J8Tzdj9g3bw6M-37">
          <mxGeometry relative="1" as="geometry">
            <Array as="points">
              <mxPoint x="845" y="2340" />
              <mxPoint x="595" y="2340" />
            </Array>
          </mxGeometry>
        </mxCell>
        <mxCell id="deBcPr4J8Tzdj9g3bw6M-38" value="&lt;b&gt;VM Stack&lt;br&gt;虚拟机栈&lt;/b&gt;" style="rounded=1;whiteSpace=wrap;html=1;shadow=1;sketch=0;fontSize=18;fillColor=#fff2cc;strokeColor=#d6b656;" vertex="1" parent="1">
          <mxGeometry x="780" y="2370" width="130" height="80" as="geometry" />
        </mxCell>
        <mxCell id="deBcPr4J8Tzdj9g3bw6M-45" style="edgeStyle=orthogonalEdgeStyle;curved=1;rounded=0;orthogonalLoop=1;jettySize=auto;html=1;entryX=0.5;entryY=1;entryDx=0;entryDy=0;fontSize=14;" edge="1" parent="1" source="deBcPr4J8Tzdj9g3bw6M-39" target="deBcPr4J8Tzdj9g3bw6M-37">
          <mxGeometry relative="1" as="geometry" />
        </mxCell>
        <mxCell id="deBcPr4J8Tzdj9g3bw6M-39" value="&lt;b&gt;Native Method Stack&lt;br&gt;本地方法栈&lt;/b&gt;" style="rounded=1;whiteSpace=wrap;html=1;shadow=1;sketch=0;fontSize=18;fillColor=#fff2cc;strokeColor=#d6b656;" vertex="1" parent="1">
          <mxGeometry x="690" y="2500" width="190" height="75" as="geometry" />
        </mxCell>
        <mxCell id="deBcPr4J8Tzdj9g3bw6M-40" value="&lt;b&gt;PC Register&lt;br&gt;程序计数器&lt;/b&gt;" style="rounded=1;whiteSpace=wrap;html=1;shadow=1;sketch=1;fontSize=18;fillColor=#f5f5f5;strokeColor=#666666;fontColor=#333333;" vertex="1" parent="1">
          <mxGeometry x="340" y="2495" width="130" height="80" as="geometry" />
        </mxCell>
        <mxCell id="deBcPr4J8Tzdj9g3bw6M-41" value="&lt;b&gt;&lt;i&gt;GC Roots&lt;/i&gt;&lt;/b&gt;" style="text;html=1;align=center;verticalAlign=middle;resizable=0;points=[];autosize=1;strokeColor=#666666;fillColor=#f5f5f5;fontSize=18;fontColor=#333333;" vertex="1" parent="1">
          <mxGeometry x="285" y="2300" width="100" height="30" as="geometry" />
        </mxCell>
        <mxCell id="deBcPr4J8Tzdj9g3bw6M-46" value="" style="rounded=0;whiteSpace=wrap;html=1;sketch=0;fontSize=14;" vertex="1" parent="1">
          <mxGeometry x="285" y="2790" width="635" height="150" as="geometry" />
        </mxCell>
        <mxCell id="deBcPr4J8Tzdj9g3bw6M-48" value="" style="rounded=0;whiteSpace=wrap;html=1;sketch=0;fontSize=14;fillColor=#fff2cc;strokeColor=#d6b656;" vertex="1" parent="1">
          <mxGeometry x="285" y="2790" width="65" height="150" as="geometry" />
        </mxCell>
        <mxCell id="deBcPr4J8Tzdj9g3bw6M-49" value="" style="rounded=0;whiteSpace=wrap;html=1;sketch=0;fontSize=14;fillColor=#d0cee2;strokeColor=#56517e;" vertex="1" parent="1">
          <mxGeometry x="350" y="2790" width="65" height="150" as="geometry" />
        </mxCell>
        <mxCell id="deBcPr4J8Tzdj9g3bw6M-50" value="" style="rounded=0;whiteSpace=wrap;html=1;sketch=0;fontSize=14;fillColor=#fff2cc;strokeColor=#d6b656;" vertex="1" parent="1">
          <mxGeometry x="415" y="2790" width="65" height="150" as="geometry" />
        </mxCell>
        <mxCell id="deBcPr4J8Tzdj9g3bw6M-51" value="" style="rounded=0;whiteSpace=wrap;html=1;sketch=0;fontSize=14;fillColor=#d0cee2;strokeColor=#56517e;" vertex="1" parent="1">
          <mxGeometry x="480" y="2790" width="30" height="150" as="geometry" />
        </mxCell>
        <mxCell id="deBcPr4J8Tzdj9g3bw6M-52" value="" style="rounded=0;whiteSpace=wrap;html=1;sketch=0;fontSize=14;fillColor=#d0cee2;strokeColor=#56517e;" vertex="1" parent="1">
          <mxGeometry x="550" y="2790" width="30" height="150" as="geometry" />
        </mxCell>
        <mxCell id="deBcPr4J8Tzdj9g3bw6M-53" value="" style="rounded=0;whiteSpace=wrap;html=1;sketch=0;fontSize=14;fillColor=#fff2cc;strokeColor=#d6b656;" vertex="1" parent="1">
          <mxGeometry x="610" y="2790" width="65" height="150" as="geometry" />
        </mxCell>
        <mxCell id="deBcPr4J8Tzdj9g3bw6M-54" value="" style="rounded=0;whiteSpace=wrap;html=1;sketch=0;fontSize=14;fillColor=#fff2cc;strokeColor=#d6b656;" vertex="1" parent="1">
          <mxGeometry x="730" y="2790" width="65" height="150" as="geometry" />
        </mxCell>
        <mxCell id="deBcPr4J8Tzdj9g3bw6M-55" value="" style="rounded=0;whiteSpace=wrap;html=1;sketch=0;fontSize=14;fillColor=#d0cee2;strokeColor=#56517e;" vertex="1" parent="1">
          <mxGeometry x="835" y="2790" width="65" height="150" as="geometry" />
        </mxCell>
        <mxCell id="deBcPr4J8Tzdj9g3bw6M-59" style="edgeStyle=orthogonalEdgeStyle;rounded=0;orthogonalLoop=1;jettySize=auto;html=1;entryX=0.5;entryY=0;entryDx=0;entryDy=0;fontSize=14;exitX=0.49;exitY=1;exitDx=0;exitDy=0;exitPerimeter=0;" edge="1" parent="1" source="deBcPr4J8Tzdj9g3bw6M-57" target="deBcPr4J8Tzdj9g3bw6M-48">
          <mxGeometry relative="1" as="geometry" />
        </mxCell>
        <mxCell id="deBcPr4J8Tzdj9g3bw6M-60" style="edgeStyle=orthogonalEdgeStyle;rounded=0;orthogonalLoop=1;jettySize=auto;html=1;entryX=0.5;entryY=0;entryDx=0;entryDy=0;fontSize=14;" edge="1" parent="1" source="deBcPr4J8Tzdj9g3bw6M-57" target="deBcPr4J8Tzdj9g3bw6M-50">
          <mxGeometry relative="1" as="geometry" />
        </mxCell>
        <mxCell id="deBcPr4J8Tzdj9g3bw6M-57" value="&lt;b&gt;&lt;i&gt;GC Roots&lt;/i&gt;&lt;/b&gt;" style="text;html=1;align=center;verticalAlign=middle;resizable=0;points=[];autosize=1;strokeColor=#666666;fillColor=#f5f5f5;fontSize=18;fontColor=#333333;" vertex="1" parent="1">
          <mxGeometry x="335" y="2680" width="100" height="30" as="geometry" />
        </mxCell>
        <mxCell id="deBcPr4J8Tzdj9g3bw6M-61" style="edgeStyle=orthogonalEdgeStyle;rounded=0;orthogonalLoop=1;jettySize=auto;html=1;entryX=0.5;entryY=0;entryDx=0;entryDy=0;fontSize=14;" edge="1" parent="1" source="deBcPr4J8Tzdj9g3bw6M-58" target="deBcPr4J8Tzdj9g3bw6M-53">
          <mxGeometry relative="1" as="geometry" />
        </mxCell>
        <mxCell id="deBcPr4J8Tzdj9g3bw6M-62" style="edgeStyle=orthogonalEdgeStyle;rounded=0;orthogonalLoop=1;jettySize=auto;html=1;entryX=0.5;entryY=0;entryDx=0;entryDy=0;fontSize=14;" edge="1" parent="1" source="deBcPr4J8Tzdj9g3bw6M-58" target="deBcPr4J8Tzdj9g3bw6M-54">
          <mxGeometry relative="1" as="geometry" />
        </mxCell>
        <mxCell id="deBcPr4J8Tzdj9g3bw6M-58" value="&lt;b&gt;&lt;i&gt;GC Roots&lt;/i&gt;&lt;/b&gt;" style="text;html=1;align=center;verticalAlign=middle;resizable=0;points=[];autosize=1;strokeColor=#666666;fillColor=#f5f5f5;fontSize=18;fontColor=#333333;" vertex="1" parent="1">
          <mxGeometry x="650" y="2680" width="100" height="30" as="geometry" />
        </mxCell>
        <mxCell id="deBcPr4J8Tzdj9g3bw6M-63" value="&lt;font style=&quot;font-size: 18px;&quot;&gt;&lt;b&gt;&lt;i&gt;标记&lt;/i&gt;&lt;/b&gt;&lt;/font&gt;" style="text;html=1;align=center;verticalAlign=middle;resizable=0;points=[];autosize=1;strokeColor=none;fillColor=none;fontSize=14;" vertex="1" parent="1">
          <mxGeometry x="160" y="2860" width="50" height="20" as="geometry" />
        </mxCell>
        <mxCell id="deBcPr4J8Tzdj9g3bw6M-64" value="" style="rounded=0;whiteSpace=wrap;html=1;sketch=0;fontSize=14;" vertex="1" parent="1">
          <mxGeometry x="285" y="3100" width="635" height="150" as="geometry" />
        </mxCell>
        <mxCell id="deBcPr4J8Tzdj9g3bw6M-65" value="" style="rounded=0;whiteSpace=wrap;html=1;sketch=0;fontSize=14;fillColor=#fff2cc;strokeColor=#d6b656;" vertex="1" parent="1">
          <mxGeometry x="285" y="3100" width="65" height="150" as="geometry" />
        </mxCell>
        <mxCell id="deBcPr4J8Tzdj9g3bw6M-67" value="" style="rounded=0;whiteSpace=wrap;html=1;sketch=0;fontSize=14;fillColor=#fff2cc;strokeColor=#d6b656;" vertex="1" parent="1">
          <mxGeometry x="350" y="3100" width="65" height="150" as="geometry" />
        </mxCell>
        <mxCell id="deBcPr4J8Tzdj9g3bw6M-70" value="" style="rounded=0;whiteSpace=wrap;html=1;sketch=0;fontSize=14;fillColor=#fff2cc;strokeColor=#d6b656;" vertex="1" parent="1">
          <mxGeometry x="415" y="3100" width="65" height="150" as="geometry" />
        </mxCell>
        <mxCell id="deBcPr4J8Tzdj9g3bw6M-71" value="" style="rounded=0;whiteSpace=wrap;html=1;sketch=0;fontSize=14;fillColor=#fff2cc;strokeColor=#d6b656;" vertex="1" parent="1">
          <mxGeometry x="475" y="3100" width="65" height="150" as="geometry" />
        </mxCell>
        <mxCell id="deBcPr4J8Tzdj9g3bw6M-73" style="edgeStyle=orthogonalEdgeStyle;rounded=0;orthogonalLoop=1;jettySize=auto;html=1;entryX=0.5;entryY=0;entryDx=0;entryDy=0;fontSize=14;exitX=0.49;exitY=1;exitDx=0;exitDy=0;exitPerimeter=0;" edge="1" parent="1" source="deBcPr4J8Tzdj9g3bw6M-75" target="deBcPr4J8Tzdj9g3bw6M-65">
          <mxGeometry relative="1" as="geometry" />
        </mxCell>
        <mxCell id="deBcPr4J8Tzdj9g3bw6M-74" style="edgeStyle=orthogonalEdgeStyle;rounded=0;orthogonalLoop=1;jettySize=auto;html=1;entryX=0.5;entryY=0;entryDx=0;entryDy=0;fontSize=14;" edge="1" parent="1" source="deBcPr4J8Tzdj9g3bw6M-75" target="deBcPr4J8Tzdj9g3bw6M-67">
          <mxGeometry relative="1" as="geometry" />
        </mxCell>
        <mxCell id="deBcPr4J8Tzdj9g3bw6M-75" value="&lt;b&gt;&lt;i&gt;GC Roots&lt;/i&gt;&lt;/b&gt;" style="text;html=1;align=center;verticalAlign=middle;resizable=0;points=[];autosize=1;strokeColor=#666666;fillColor=#f5f5f5;fontSize=18;fontColor=#333333;" vertex="1" parent="1">
          <mxGeometry x="335" y="2990" width="100" height="30" as="geometry" />
        </mxCell>
        <mxCell id="deBcPr4J8Tzdj9g3bw6M-76" style="edgeStyle=orthogonalEdgeStyle;rounded=0;orthogonalLoop=1;jettySize=auto;html=1;entryX=0.5;entryY=0;entryDx=0;entryDy=0;fontSize=14;" edge="1" parent="1" source="deBcPr4J8Tzdj9g3bw6M-78" target="deBcPr4J8Tzdj9g3bw6M-70">
          <mxGeometry relative="1" as="geometry" />
        </mxCell>
        <mxCell id="deBcPr4J8Tzdj9g3bw6M-77" style="edgeStyle=orthogonalEdgeStyle;rounded=0;orthogonalLoop=1;jettySize=auto;html=1;entryX=0.5;entryY=0;entryDx=0;entryDy=0;fontSize=14;" edge="1" parent="1" source="deBcPr4J8Tzdj9g3bw6M-78" target="deBcPr4J8Tzdj9g3bw6M-71">
          <mxGeometry relative="1" as="geometry" />
        </mxCell>
        <mxCell id="deBcPr4J8Tzdj9g3bw6M-78" value="&lt;b&gt;&lt;i&gt;GC Roots&lt;/i&gt;&lt;/b&gt;" style="text;html=1;align=center;verticalAlign=middle;resizable=0;points=[];autosize=1;strokeColor=#666666;fillColor=#f5f5f5;fontSize=18;fontColor=#333333;" vertex="1" parent="1">
          <mxGeometry x="470" y="2990" width="100" height="30" as="geometry" />
        </mxCell>
        <mxCell id="deBcPr4J8Tzdj9g3bw6M-79" value="&lt;span style=&quot;font-size: 18px;&quot;&gt;&lt;b&gt;&lt;i&gt;整理&lt;/i&gt;&lt;/b&gt;&lt;/span&gt;" style="text;html=1;align=center;verticalAlign=middle;resizable=0;points=[];autosize=1;strokeColor=none;fillColor=none;fontSize=14;" vertex="1" parent="1">
          <mxGeometry x="160" y="3170" width="50" height="20" as="geometry" />
        </mxCell>
        <mxCell id="deBcPr4J8Tzdj9g3bw6M-80" value="" style="rounded=0;whiteSpace=wrap;html=1;sketch=0;fontSize=14;" vertex="1" parent="1">
          <mxGeometry x="1445" y="2650" width="455" height="150" as="geometry" />
        </mxCell>
        <mxCell id="deBcPr4J8Tzdj9g3bw6M-81" value="" style="rounded=0;whiteSpace=wrap;html=1;sketch=0;fontSize=14;fillColor=#fff2cc;strokeColor=#d6b656;" vertex="1" parent="1">
          <mxGeometry x="1445" y="2650" width="65" height="150" as="geometry" />
        </mxCell>
        <mxCell id="deBcPr4J8Tzdj9g3bw6M-82" value="" style="rounded=0;whiteSpace=wrap;html=1;sketch=0;fontSize=14;fillColor=#d0cee2;strokeColor=#56517e;" vertex="1" parent="1">
          <mxGeometry x="1510" y="2650" width="65" height="150" as="geometry" />
        </mxCell>
        <mxCell id="deBcPr4J8Tzdj9g3bw6M-83" value="" style="rounded=0;whiteSpace=wrap;html=1;sketch=0;fontSize=14;fillColor=#fff2cc;strokeColor=#d6b656;" vertex="1" parent="1">
          <mxGeometry x="1575" y="2650" width="45" height="150" as="geometry" />
        </mxCell>
        <mxCell id="deBcPr4J8Tzdj9g3bw6M-84" value="" style="rounded=0;whiteSpace=wrap;html=1;sketch=0;fontSize=14;fillColor=#d0cee2;strokeColor=#56517e;" vertex="1" parent="1">
          <mxGeometry x="1640" y="2650" width="30" height="150" as="geometry" />
        </mxCell>
        <mxCell id="deBcPr4J8Tzdj9g3bw6M-85" value="" style="rounded=0;whiteSpace=wrap;html=1;sketch=0;fontSize=14;fillColor=#d0cee2;strokeColor=#56517e;" vertex="1" parent="1">
          <mxGeometry x="1710" y="2650" width="30" height="150" as="geometry" />
        </mxCell>
        <mxCell id="deBcPr4J8Tzdj9g3bw6M-86" value="" style="rounded=0;whiteSpace=wrap;html=1;sketch=0;fontSize=14;fillColor=#d0cee2;strokeColor=#56517e;" vertex="1" parent="1">
          <mxGeometry x="1770" y="2650" width="40" height="150" as="geometry" />
        </mxCell>
        <mxCell id="deBcPr4J8Tzdj9g3bw6M-89" style="edgeStyle=orthogonalEdgeStyle;rounded=0;orthogonalLoop=1;jettySize=auto;html=1;entryX=0.5;entryY=0;entryDx=0;entryDy=0;fontSize=14;exitX=0.49;exitY=1;exitDx=0;exitDy=0;exitPerimeter=0;" edge="1" parent="1" source="deBcPr4J8Tzdj9g3bw6M-91" target="deBcPr4J8Tzdj9g3bw6M-81">
          <mxGeometry relative="1" as="geometry" />
        </mxCell>
        <mxCell id="deBcPr4J8Tzdj9g3bw6M-90" style="edgeStyle=orthogonalEdgeStyle;rounded=0;orthogonalLoop=1;jettySize=auto;html=1;entryX=0.5;entryY=0;entryDx=0;entryDy=0;fontSize=14;" edge="1" parent="1" source="deBcPr4J8Tzdj9g3bw6M-91" target="deBcPr4J8Tzdj9g3bw6M-83">
          <mxGeometry relative="1" as="geometry" />
        </mxCell>
        <mxCell id="deBcPr4J8Tzdj9g3bw6M-91" value="&lt;b&gt;&lt;i&gt;GC Roots&lt;/i&gt;&lt;/b&gt;" style="text;html=1;align=center;verticalAlign=middle;resizable=0;points=[];autosize=1;strokeColor=#666666;fillColor=#f5f5f5;fontSize=18;fontColor=#333333;" vertex="1" parent="1">
          <mxGeometry x="1495" y="2540" width="100" height="30" as="geometry" />
        </mxCell>
        <mxCell id="deBcPr4J8Tzdj9g3bw6M-108" value="&lt;b&gt;&lt;i&gt;复制算法&lt;br&gt;适用于垃圾较多&lt;br&gt;存活对象较少的情况&lt;br&gt;&lt;/i&gt;&lt;/b&gt;" style="text;html=1;align=center;verticalAlign=middle;resizable=0;points=[];autosize=1;strokeColor=none;fillColor=none;fontSize=18;" vertex="1" parent="1">
          <mxGeometry x="1840" y="2550" width="180" height="70" as="geometry" />
        </mxCell>
        <mxCell id="deBcPr4J8Tzdj9g3bw6M-121" value="" style="rounded=0;whiteSpace=wrap;html=1;sketch=0;fontSize=14;fillColor=#d0cee2;strokeColor=#56517e;" vertex="1" parent="1">
          <mxGeometry x="1840" y="2650" width="40" height="150" as="geometry" />
        </mxCell>
        <mxCell id="deBcPr4J8Tzdj9g3bw6M-134" value="" style="rounded=0;whiteSpace=wrap;html=1;sketch=0;fontSize=14;" vertex="1" parent="1">
          <mxGeometry x="1970" y="2650" width="455" height="150" as="geometry" />
        </mxCell>
        <mxCell id="deBcPr4J8Tzdj9g3bw6M-142" value="&lt;b&gt;&lt;i&gt;From&lt;/i&gt;&lt;/b&gt;" style="text;html=1;align=center;verticalAlign=middle;resizable=0;points=[];autosize=1;strokeColor=none;fillColor=none;fontSize=18;" vertex="1" parent="1">
          <mxGeometry x="1640" y="2810" width="60" height="30" as="geometry" />
        </mxCell>
        <mxCell id="deBcPr4J8Tzdj9g3bw6M-143" value="&lt;b&gt;&lt;i&gt;To&lt;/i&gt;&lt;/b&gt;" style="text;html=1;align=center;verticalAlign=middle;resizable=0;points=[];autosize=1;strokeColor=none;fillColor=none;fontSize=18;" vertex="1" parent="1">
          <mxGeometry x="2175" y="2810" width="40" height="30" as="geometry" />
        </mxCell>
        <mxCell id="deBcPr4J8Tzdj9g3bw6M-144" value="" style="rounded=0;whiteSpace=wrap;html=1;sketch=0;fontSize=14;" vertex="1" parent="1">
          <mxGeometry x="1430" y="2940" width="455" height="150" as="geometry" />
        </mxCell>
        <mxCell id="deBcPr4J8Tzdj9g3bw6M-145" value="" style="rounded=0;whiteSpace=wrap;html=1;sketch=0;fontSize=14;fillColor=#fff2cc;strokeColor=#d6b656;" vertex="1" parent="1">
          <mxGeometry x="1955" y="2940" width="65" height="150" as="geometry" />
        </mxCell>
        <mxCell id="deBcPr4J8Tzdj9g3bw6M-146" value="" style="rounded=0;whiteSpace=wrap;html=1;sketch=0;fontSize=14;fillColor=#d0cee2;strokeColor=#56517e;" vertex="1" parent="1">
          <mxGeometry x="1495" y="2940" width="65" height="150" as="geometry" />
        </mxCell>
        <mxCell id="deBcPr4J8Tzdj9g3bw6M-147" value="" style="rounded=0;whiteSpace=wrap;html=1;sketch=0;fontSize=14;fillColor=#fff2cc;strokeColor=#d6b656;" vertex="1" parent="1">
          <mxGeometry x="2020" y="2940" width="45" height="150" as="geometry" />
        </mxCell>
        <mxCell id="deBcPr4J8Tzdj9g3bw6M-148" value="" style="rounded=0;whiteSpace=wrap;html=1;sketch=0;fontSize=14;fillColor=#d0cee2;strokeColor=#56517e;" vertex="1" parent="1">
          <mxGeometry x="1625" y="2940" width="30" height="150" as="geometry" />
        </mxCell>
        <mxCell id="deBcPr4J8Tzdj9g3bw6M-149" value="" style="rounded=0;whiteSpace=wrap;html=1;sketch=0;fontSize=14;fillColor=#d0cee2;strokeColor=#56517e;" vertex="1" parent="1">
          <mxGeometry x="1695" y="2940" width="30" height="150" as="geometry" />
        </mxCell>
        <mxCell id="deBcPr4J8Tzdj9g3bw6M-150" value="" style="rounded=0;whiteSpace=wrap;html=1;sketch=0;fontSize=14;fillColor=#d0cee2;strokeColor=#56517e;" vertex="1" parent="1">
          <mxGeometry x="1755" y="2940" width="40" height="150" as="geometry" />
        </mxCell>
        <mxCell id="deBcPr4J8Tzdj9g3bw6M-151" style="edgeStyle=orthogonalEdgeStyle;rounded=0;orthogonalLoop=1;jettySize=auto;html=1;entryX=0.5;entryY=0;entryDx=0;entryDy=0;fontSize=14;exitX=0.49;exitY=1;exitDx=0;exitDy=0;exitPerimeter=0;" edge="1" parent="1" source="deBcPr4J8Tzdj9g3bw6M-153" target="deBcPr4J8Tzdj9g3bw6M-145">
          <mxGeometry relative="1" as="geometry" />
        </mxCell>
        <mxCell id="deBcPr4J8Tzdj9g3bw6M-152" style="edgeStyle=orthogonalEdgeStyle;rounded=0;orthogonalLoop=1;jettySize=auto;html=1;fontSize=14;" edge="1" parent="1">
          <mxGeometry relative="1" as="geometry">
            <mxPoint x="1530" y="2860" as="sourcePoint" />
            <mxPoint x="2050" y="2940" as="targetPoint" />
            <Array as="points">
              <mxPoint x="1530" y="2900" />
              <mxPoint x="2050" y="2900" />
              <mxPoint x="2050" y="2940" />
            </Array>
          </mxGeometry>
        </mxCell>
        <mxCell id="deBcPr4J8Tzdj9g3bw6M-153" value="&lt;b&gt;&lt;i&gt;GC Roots&lt;/i&gt;&lt;/b&gt;" style="text;html=1;align=center;verticalAlign=middle;resizable=0;points=[];autosize=1;strokeColor=#666666;fillColor=#f5f5f5;fontSize=18;fontColor=#333333;" vertex="1" parent="1">
          <mxGeometry x="1480" y="2830" width="100" height="30" as="geometry" />
        </mxCell>
        <mxCell id="deBcPr4J8Tzdj9g3bw6M-155" value="" style="rounded=0;whiteSpace=wrap;html=1;sketch=0;fontSize=14;fillColor=#d0cee2;strokeColor=#56517e;" vertex="1" parent="1">
          <mxGeometry x="1825" y="2940" width="40" height="150" as="geometry" />
        </mxCell>
        <mxCell id="deBcPr4J8Tzdj9g3bw6M-157" value="&lt;b&gt;&lt;i&gt;From&lt;/i&gt;&lt;/b&gt;" style="text;html=1;align=center;verticalAlign=middle;resizable=0;points=[];autosize=1;strokeColor=none;fillColor=none;fontSize=18;" vertex="1" parent="1">
          <mxGeometry x="1625" y="3100" width="60" height="30" as="geometry" />
        </mxCell>
        <mxCell id="deBcPr4J8Tzdj9g3bw6M-158" value="&lt;b&gt;&lt;i&gt;To&lt;/i&gt;&lt;/b&gt;" style="text;html=1;align=center;verticalAlign=middle;resizable=0;points=[];autosize=1;strokeColor=none;fillColor=none;fontSize=18;" vertex="1" parent="1">
          <mxGeometry x="2160" y="3100" width="40" height="30" as="geometry" />
        </mxCell>
        <mxCell id="deBcPr4J8Tzdj9g3bw6M-159" value="" style="rounded=0;whiteSpace=wrap;html=1;sketch=0;fontSize=14;" vertex="1" parent="1">
          <mxGeometry x="1955" y="3230" width="455" height="150" as="geometry" />
        </mxCell>
        <mxCell id="deBcPr4J8Tzdj9g3bw6M-160" value="" style="rounded=0;whiteSpace=wrap;html=1;sketch=0;fontSize=14;" vertex="1" parent="1">
          <mxGeometry x="1430" y="3230" width="455" height="150" as="geometry" />
        </mxCell>
        <mxCell id="deBcPr4J8Tzdj9g3bw6M-161" value="" style="rounded=0;whiteSpace=wrap;html=1;sketch=0;fontSize=14;fillColor=#fff2cc;strokeColor=#d6b656;" vertex="1" parent="1">
          <mxGeometry x="1955" y="3230" width="65" height="150" as="geometry" />
        </mxCell>
        <mxCell id="deBcPr4J8Tzdj9g3bw6M-163" value="" style="rounded=0;whiteSpace=wrap;html=1;sketch=0;fontSize=14;fillColor=#fff2cc;strokeColor=#d6b656;" vertex="1" parent="1">
          <mxGeometry x="2020" y="3230" width="45" height="150" as="geometry" />
        </mxCell>
        <mxCell id="deBcPr4J8Tzdj9g3bw6M-167" style="edgeStyle=orthogonalEdgeStyle;rounded=0;orthogonalLoop=1;jettySize=auto;html=1;entryX=0.5;entryY=0;entryDx=0;entryDy=0;fontSize=14;exitX=0.49;exitY=1;exitDx=0;exitDy=0;exitPerimeter=0;" edge="1" parent="1" source="deBcPr4J8Tzdj9g3bw6M-169" target="deBcPr4J8Tzdj9g3bw6M-161">
          <mxGeometry relative="1" as="geometry" />
        </mxCell>
        <mxCell id="deBcPr4J8Tzdj9g3bw6M-168" style="edgeStyle=orthogonalEdgeStyle;rounded=0;orthogonalLoop=1;jettySize=auto;html=1;entryX=0.5;entryY=0;entryDx=0;entryDy=0;fontSize=14;" edge="1" parent="1" target="deBcPr4J8Tzdj9g3bw6M-163">
          <mxGeometry relative="1" as="geometry">
            <mxPoint x="1530" y="3150" as="sourcePoint" />
            <Array as="points">
              <mxPoint x="1530" y="3190" />
              <mxPoint x="2043" y="3190" />
            </Array>
          </mxGeometry>
        </mxCell>
        <mxCell id="deBcPr4J8Tzdj9g3bw6M-169" value="&lt;b&gt;&lt;i&gt;GC Roots&lt;/i&gt;&lt;/b&gt;" style="text;html=1;align=center;verticalAlign=middle;resizable=0;points=[];autosize=1;strokeColor=#666666;fillColor=#f5f5f5;fontSize=18;fontColor=#333333;" vertex="1" parent="1">
          <mxGeometry x="1480" y="3120" width="100" height="30" as="geometry" />
        </mxCell>
        <mxCell id="deBcPr4J8Tzdj9g3bw6M-171" value="&lt;b&gt;&lt;i&gt;From&lt;/i&gt;&lt;/b&gt;" style="text;html=1;align=center;verticalAlign=middle;resizable=0;points=[];autosize=1;strokeColor=none;fillColor=none;fontSize=18;" vertex="1" parent="1">
          <mxGeometry x="1625" y="3390" width="60" height="30" as="geometry" />
        </mxCell>
        <mxCell id="deBcPr4J8Tzdj9g3bw6M-172" value="&lt;b&gt;&lt;i&gt;To&lt;/i&gt;&lt;/b&gt;" style="text;html=1;align=center;verticalAlign=middle;resizable=0;points=[];autosize=1;strokeColor=none;fillColor=none;fontSize=18;" vertex="1" parent="1">
          <mxGeometry x="2160" y="3390" width="40" height="30" as="geometry" />
        </mxCell>
        <mxCell id="deBcPr4J8Tzdj9g3bw6M-173" value="" style="rounded=0;whiteSpace=wrap;html=1;sketch=0;fontSize=14;" vertex="1" parent="1">
          <mxGeometry x="1430" y="3530" width="455" height="150" as="geometry" />
        </mxCell>
        <mxCell id="deBcPr4J8Tzdj9g3bw6M-174" value="" style="rounded=0;whiteSpace=wrap;html=1;sketch=0;fontSize=14;" vertex="1" parent="1">
          <mxGeometry x="1957.5" y="3530" width="455" height="150" as="geometry" />
        </mxCell>
        <mxCell id="deBcPr4J8Tzdj9g3bw6M-175" value="" style="rounded=0;whiteSpace=wrap;html=1;sketch=0;fontSize=14;fillColor=#fff2cc;strokeColor=#d6b656;" vertex="1" parent="1">
          <mxGeometry x="1430" y="3530" width="65" height="150" as="geometry" />
        </mxCell>
        <mxCell id="deBcPr4J8Tzdj9g3bw6M-176" value="" style="rounded=0;whiteSpace=wrap;html=1;sketch=0;fontSize=14;fillColor=#fff2cc;strokeColor=#d6b656;" vertex="1" parent="1">
          <mxGeometry x="1495" y="3530" width="45" height="150" as="geometry" />
        </mxCell>
        <mxCell id="deBcPr4J8Tzdj9g3bw6M-177" style="edgeStyle=orthogonalEdgeStyle;rounded=0;orthogonalLoop=1;jettySize=auto;html=1;entryX=0.5;entryY=0;entryDx=0;entryDy=0;fontSize=14;exitX=0.49;exitY=1;exitDx=0;exitDy=0;exitPerimeter=0;" edge="1" parent="1" source="deBcPr4J8Tzdj9g3bw6M-179" target="deBcPr4J8Tzdj9g3bw6M-175">
          <mxGeometry relative="1" as="geometry" />
        </mxCell>
        <mxCell id="deBcPr4J8Tzdj9g3bw6M-182" style="edgeStyle=orthogonalEdgeStyle;rounded=0;orthogonalLoop=1;jettySize=auto;html=1;entryX=0.5;entryY=0;entryDx=0;entryDy=0;fontSize=18;" edge="1" parent="1" source="deBcPr4J8Tzdj9g3bw6M-179" target="deBcPr4J8Tzdj9g3bw6M-176">
          <mxGeometry relative="1" as="geometry" />
        </mxCell>
        <mxCell id="deBcPr4J8Tzdj9g3bw6M-179" value="&lt;b&gt;&lt;i&gt;GC Roots&lt;/i&gt;&lt;/b&gt;" style="text;html=1;align=center;verticalAlign=middle;resizable=0;points=[];autosize=1;strokeColor=#666666;fillColor=#f5f5f5;fontSize=18;fontColor=#333333;" vertex="1" parent="1">
          <mxGeometry x="1452.5" y="3420" width="100" height="30" as="geometry" />
        </mxCell>
        <mxCell id="deBcPr4J8Tzdj9g3bw6M-180" value="&lt;b&gt;&lt;i&gt;From&lt;/i&gt;&lt;/b&gt;" style="text;html=1;align=center;verticalAlign=middle;resizable=0;points=[];autosize=1;strokeColor=none;fillColor=none;fontSize=18;" vertex="1" parent="1">
          <mxGeometry x="1627.5" y="3690" width="60" height="30" as="geometry" />
        </mxCell>
        <mxCell id="deBcPr4J8Tzdj9g3bw6M-181" value="&lt;b&gt;&lt;i&gt;To&lt;/i&gt;&lt;/b&gt;" style="text;html=1;align=center;verticalAlign=middle;resizable=0;points=[];autosize=1;strokeColor=none;fillColor=none;fontSize=18;" vertex="1" parent="1">
          <mxGeometry x="2162.5" y="3690" width="40" height="30" as="geometry" />
        </mxCell>
      </root>
    </mxGraphModel>
  </diagram>
</mxfile>
